<svg width="130" height="137" viewBox="0 0 130 137" fill="none" xmlns="http://www.w3.org/2000/svg">
<path d="M110.331 14.3458C110.331 6.42396 103.907 0 95.9858 0C88.0618 0 81.6379 6.42396 81.6379 14.3458C81.6379 22.2676 88.0618 28.6916 95.9858 28.6916C103.907 28.6916 110.331 22.2676 110.331 14.3458Z" fill="#6DFEB1"/>
<path d="M58.6574 15.6326C56.3748 14.8292 53.8586 15.0386 51.7394 16.2096L26.5291 30.1503C22.4355 32.4138 20.9511 37.5688 23.215 41.6642C25.4789 45.757 30.6343 47.2417 34.7284 44.9783L56.611 32.8772L67.9857 36.8871L50.5343 65.5319C49.7862 66.7638 49.2921 68.0813 49.0381 69.4205L36.5463 86.3996L8.95765 86.6025C4.28011 86.637 0.514972 90.4579 0.549058 95.1355C0.581356 99.813 4.40266 103.578 9.08199 103.545L40.9137 103.311C43.5869 103.292 46.0916 102.014 47.6772 99.8628L59.2 84.1987L74.3841 95.1546L61.6715 124.208C59.7962 128.495 61.7507 133.49 66.0376 135.364C70.3245 137.24 75.3186 135.284 77.194 130.998L92.6462 95.6806C94.2445 92.0256 93.0764 87.7502 89.8414 85.414L73.0232 73.2797L85.7716 52.3533L88.8942 64.134C89.6691 67.0549 91.9428 69.3426 94.8624 70.1379L118.795 76.6436C123.309 77.8705 127.964 75.2049 129.192 70.6907C130.419 66.1753 127.753 61.5208 123.239 60.2926L104.02 55.0687L99.697 38.7612C99.1838 36.8309 98.0042 35.1432 96.3688 33.9968L82.7766 24.4703C82.146 24.0277 81.4579 23.6737 80.7315 23.4183L58.6574 15.6326Z" fill="#6DFEB1"/>
</svg>
