<svg width="256" height="256" viewBox="0 0 256 256" fill="none" xmlns="http://www.w3.org/2000/svg">
<g clip-path="url(#clip0_0_3)">
<path d="M120.872 101.507C128.5 99.5 131 96 131 89C130.375 83.3824 126.374 79.8237 120.94 80.817C118.848 81.1996 116.774 81.7213 114.734 82.3824C105.047 85.5207 96.5925 91.6406 90.5895 99.8794C84.5856 108.119 81.3459 118.053 81.3459 128.256C81.3459 138.458 84.5856 148.392 90.5895 156.632C96.5925 164.871 105.047 170.99 114.734 174.129C121.227 176.232 128.056 176.926 134.77 176.209C143 175.33 144.102 167.434 143 164C141.534 159.434 138.5 156.901 131.5 156.632C128.908 156.532 123.368 155.813 120.872 155.004C115.178 153.159 110.23 149.569 106.727 144.762C103.226 139.956 101.346 134.178 101.346 128.256C101.346 122.333 103.226 116.555 106.727 111.749C110.23 106.942 115.178 103.352 120.872 101.507Z" fill="#6C57EC" fill-opacity="0.5"/>
<path d="M109.628 0.122698C93.3054 2.50133 77.4668 8.04505 63.0351 16.5862C36.775 32.1275 16.896 56.5731 6.97362 85.5259C-2.94877 114.479 -2.26337 146.039 8.90655 174.529C20.0765 203.019 40.9979 226.57 67.9076 240.946C94.8174 255.322 125.949 259.579 155.704 252.951C185.459 246.324 211.884 229.246 230.225 204.791C248.567 180.336 257.622 150.108 255.761 119.544C254.739 102.747 250.456 86.4544 243.292 71.5287C239.782 64.2162 230.249 63.1064 224.437 68.7459C220.209 72.8482 219.381 79.2829 221.808 84.6614C226.952 96.0597 230.035 108.39 230.808 121.078C232.305 145.672 225.019 169.996 210.259 189.675C195.5 209.354 174.237 223.095 150.293 228.429C126.35 233.762 101.298 230.336 79.6444 218.768C57.9905 207.2 41.1553 188.249 32.167 165.323C23.1787 142.397 22.6271 117.001 30.6116 93.7035C38.596 70.4056 54.5924 50.7345 75.7235 38.2286C86.6246 31.777 98.5232 27.4507 110.805 25.3614C116.6 24.3755 121.447 20.0876 122.467 14.2718C123.87 6.27673 117.624 -1.04264 109.628 0.122698Z" fill="#6C57EC"/>
<path d="M112.914 41.2101C108.947 41.92 105.017 42.9058 101.152 44.1675C83.4782 49.9373 68.0757 61.1807 57.1524 76.2862C46.2292 91.3918 40.3459 109.584 40.3459 128.256C40.3459 146.927 46.2291 165.119 57.1524 180.225C68.0757 195.33 83.4782 206.574 101.152 212.344C118.827 218.113 137.865 218.113 155.539 212.344C173.214 206.574 188.616 195.33 199.539 180.225C201.928 176.922 204.076 173.471 205.973 169.9C210.16 162.022 203.8 153.374 194.911 153.374C189.607 153.374 184.919 156.613 182.161 161.165C181.273 162.631 180.324 164.064 179.314 165.461C171.494 176.275 160.467 184.324 147.814 188.455C135.161 192.586 121.531 192.586 108.878 188.455C96.2247 184.324 85.1979 176.275 77.3778 165.461C69.5578 154.647 65.3459 141.623 65.3459 128.256C65.3459 114.888 69.5578 101.864 77.3778 91.0503C85.1979 80.236 96.2247 72.1868 108.878 68.0561C110.512 67.5227 112.162 67.0582 113.824 66.6626C118.985 65.4342 123.5 61.9555 125.139 56.8873C127.886 48.3939 121.665 39.644 112.914 41.2101Z" fill="#6C57EC" fill-opacity="0.75"/>
</g>
<defs>
<clipPath id="clip0_0_3">
<rect width="256" height="256" rx="128" fill="white"/>
</clipPath>
</defs>
</svg>
